<svg id="sw-js-blob-svg" viewBox="0 0 100 100" xmlns="http://www.w3.org/2000/svg" version="1.1">
    <defs> 
        <linearGradient id="sw-gradient" x1="0" x2="1" y1="1" y2="0">
            <stop id="stop1" stop-color="#fff" offset="100%"></stop>
            <stop id="stop2" stop-color="#fff" offset="0%"></stop>
        </linearGradient>
    </defs>
<path fill="url(#sw-gradient)" d="M19,-20.8C24.7,-17.8,29.6,-11.9,33.2,-4C36.7,3.8,38.9,13.8,35.1,20.2C31.3,26.6,21.6,29.5,12.3,32.1C3.1,34.6,-5.6,36.9,-11.9,34C-18.2,31.2,-22.2,23.1,-25.2,15.7C-28.2,8.2,-30.2,1.2,-28.6,-4.6C-27.1,-10.5,-22,-15.3,-16.6,-18.4C-11.3,-21.4,-5.6,-22.6,0.5,-23.2C6.6,-23.8,13.2,-23.7,19,-20.8Z" width="100%" height="100%" transform="translate(50 50)" stroke-width="0" style="transition: all 0.3s ease 0s;"></path>
</svg>